REM MD5 4195e08d5b48436640d2922910805dea
FILE "Euro Demo 02-99 (Germany).bin" BINARY
  TRACK 01 MODE2/2352
    INDEX 01 00:00:00
  TRACK 02 AUDIO
    INDEX 00 22:49:36
    INDEX 01 22:51:36
  TRACK 03 AUDIO
    INDEX 00 28:14:25
    INDEX 01 28:16:25
  TRACK 04 AUDIO
    INDEX 00 30:45:18
    INDEX 01 30:47:18
  TRACK 05 AUDIO
    INDEX 00 34:16:58
    INDEX 01 34:18:58
REM LEADOUT 37:20:15
